# xmcd CD database file generated by OrangeCD 4.3
#
# Track frame offsets:
#	150
#	15139
#	28154
#	41214
#	59795
#	81717
#	102612
#	111012
#	126893
#	148752
#	161233
#
# Disc length: 2350 seconds
#
# Revision: 0
# Processed by: cddbd v1.4PL0 Copyright (c) Steve Scherf et al.
# Submitted via: OrangeCD 4.3
#
DISCID=a4092c0b
DTITLE=Siegel-Schwall Band - R.I.P.
DYEAR=1974
DGENRE=Blues
TTITLE0=Take Out Some Insurance
TTITLE1=Pretty Good
TTITLE2=(I) Can't Believe You Wanna Leave
TTITLE3=Wild About My Lovin'
TTITLE4=Night Time's The Right Time
TTITLE5=I'm A Hog For You Baby
TTITLE6=Tell Me Mama
TTITLE7=You Don't Have To Go
TTITLE8=Long Distance Call
TTITLE9=It's Too Short
TTITLE10=Women Make A Fool Out Of Me
EXTD=
EXTT0=
EXTT1=
EXTT2=
EXTT3=
EXTT4=
EXTT5=
EXTT6=
EXTT7=
EXTT8=
EXTT9=
EXTT10=
PLAYORDER=
